<mxfile host="65bd71144e">
    <diagram id="9NmG1h3uneCv-cerQyHa" name="Page-1">
        <mxGraphModel dx="1603" dy="423" grid="1" gridSize="10" guides="1" tooltips="1" connect="1" arrows="1" fold="1" page="1" pageScale="1" pageWidth="850" pageHeight="1100" math="0" shadow="0">
            <root>
                <mxCell id="0"/>
                <mxCell id="1" parent="0"/>
                <mxCell id="2" value="KombuchaController" style="rounded=0;whiteSpace=wrap;html=1;" vertex="1" parent="1">
                    <mxGeometry x="230" y="30" width="330" height="370" as="geometry"/>
                </mxCell>
                <mxCell id="3" value="mainKombuchaList&lt;br&gt;" style="ellipse;whiteSpace=wrap;html=1;" vertex="1" parent="1">
                    <mxGeometry x="425" y="50" width="120" height="80" as="geometry"/>
                </mxCell>
                <mxCell id="4" value="create" style="rounded=0;whiteSpace=wrap;html=1;" vertex="1" parent="1">
                    <mxGeometry x="240" y="100" width="120" height="60" as="geometry"/>
                </mxCell>
                <mxCell id="6" style="edgeStyle=none;html=1;" edge="1" parent="1" source="5">
                    <mxGeometry relative="1" as="geometry">
                        <mxPoint x="70" y="220" as="targetPoint"/>
                    </mxGeometry>
                </mxCell>
                <mxCell id="5" value="read&lt;br&gt;(KombuchaList)" style="whiteSpace=wrap;html=1;aspect=fixed;" vertex="1" parent="1">
                    <mxGeometry x="240" y="175" width="90" height="90" as="geometry"/>
                </mxCell>
                <mxCell id="7" style="edgeStyle=none;html=1;exitX=1;exitY=0.75;exitDx=0;exitDy=0;" edge="1" parent="1" source="5" target="8">
                    <mxGeometry relative="1" as="geometry">
                        <mxPoint x="660" y="215" as="targetPoint"/>
                        <Array as="points">
                            <mxPoint x="630" y="240"/>
                        </Array>
                    </mxGeometry>
                </mxCell>
                <mxCell id="8" value="return&lt;br&gt;&amp;lt;" style="rounded=0;whiteSpace=wrap;html=1;" vertex="1" parent="1">
                    <mxGeometry x="600" y="130" width="120" height="60" as="geometry"/>
                </mxCell>
                <mxCell id="9" value="&amp;lt;react.Fragment" style="whiteSpace=wrap;html=1;aspect=fixed;" vertex="1" parent="1">
                    <mxGeometry x="-70" y="175" width="140" height="140" as="geometry"/>
                </mxCell>
                <mxCell id="10" value="Edit Fragment" style="whiteSpace=wrap;html=1;aspect=fixed;" vertex="1" parent="1">
                    <mxGeometry x="265" y="280" width="115" height="115" as="geometry"/>
                </mxCell>
                <mxCell id="12" style="edgeStyle=none;html=1;" edge="1" parent="1" source="11">
                    <mxGeometry relative="1" as="geometry">
                        <mxPoint x="180" y="390" as="targetPoint"/>
                    </mxGeometry>
                </mxCell>
                <mxCell id="11" value="update" style="rounded=0;whiteSpace=wrap;html=1;" vertex="1" parent="1">
                    <mxGeometry x="250" y="360" width="60" height="40" as="geometry"/>
                </mxCell>
                <mxCell id="13" value="updates array to index" style="rounded=0;whiteSpace=wrap;html=1;" vertex="1" parent="1">
                    <mxGeometry x="50" y="350" width="120" height="60" as="geometry"/>
                </mxCell>
                <mxCell id="15" style="edgeStyle=none;html=1;" edge="1" parent="1" source="14" target="2">
                    <mxGeometry relative="1" as="geometry"/>
                </mxCell>
                <mxCell id="16" style="edgeStyle=none;html=1;exitX=1;exitY=0.5;exitDx=0;exitDy=0;" edge="1" parent="1" source="14">
                    <mxGeometry relative="1" as="geometry">
                        <mxPoint x="620" y="380" as="targetPoint"/>
                    </mxGeometry>
                </mxCell>
                <mxCell id="14" value="delete" style="rounded=0;whiteSpace=wrap;html=1;" vertex="1" parent="1">
                    <mxGeometry x="320" y="365" width="80" height="30" as="geometry"/>
                </mxCell>
                <mxCell id="17" value="array with no index" style="rounded=0;whiteSpace=wrap;html=1;" vertex="1" parent="1">
                    <mxGeometry x="620" y="340" width="120" height="60" as="geometry"/>
                </mxCell>
                <mxCell id="19" style="edgeStyle=none;html=1;" edge="1" parent="1" source="18" target="20">
                    <mxGeometry relative="1" as="geometry">
                        <mxPoint x="175" y="870" as="targetPoint"/>
                    </mxGeometry>
                </mxCell>
                <mxCell id="22" style="edgeStyle=none;html=1;" edge="1" parent="1" source="18" target="21">
                    <mxGeometry relative="1" as="geometry"/>
                </mxCell>
                <mxCell id="18" value="app" style="rounded=0;whiteSpace=wrap;html=1;" vertex="1" parent="1">
                    <mxGeometry x="50" y="600" width="230" height="170" as="geometry"/>
                </mxCell>
                <mxCell id="23" style="edgeStyle=none;html=1;" edge="1" parent="1" source="20">
                    <mxGeometry relative="1" as="geometry">
                        <mxPoint x="40" y="1010" as="targetPoint"/>
                    </mxGeometry>
                </mxCell>
                <mxCell id="20" value="main" style="rounded=0;whiteSpace=wrap;html=1;" vertex="1" parent="1">
                    <mxGeometry x="-20" y="870" width="120" height="70" as="geometry"/>
                </mxCell>
                <mxCell id="21" value="kombucha cart" style="rounded=0;whiteSpace=wrap;html=1;" vertex="1" parent="1">
                    <mxGeometry x="200" y="850" width="120" height="60" as="geometry"/>
                </mxCell>
                <mxCell id="24" value="view kombuchas" style="rounded=0;whiteSpace=wrap;html=1;" vertex="1" parent="1">
                    <mxGeometry x="-10" y="1020" width="120" height="60" as="geometry"/>
                </mxCell>
            </root>
        </mxGraphModel>
    </diagram>
</mxfile>